<svg id="Camera" xmlns="http://www.w3.org/2000/svg" viewBox="0 0 800 800"><defs><style>.cls-1{fill:#73ffc7;}.cls-2{fill:#fff;stroke:#73ffc8;stroke-miterlimit:10;stroke-width:5px;}</style></defs><title>musiclogo</title><path class="cls-1" d="M168.72,521c-76,30.31-120.84,96.82-100.2,148.54s99,69.06,175,38.72c52.58-21,90.22-59.3,101.6-98a32.11,32.11,0,0,0,3.78-15.14V304.52l276.54-51.23V498.74c-32.93-9.25-74.56-6.78-115.5,9.57-76,30.3-120.83,96.81-100.22,148.51s99,69,175,38.72c52.6-21,90.26-59.32,101.63-98.06A32.39,32.39,0,0,0,690,582.36V190.74a32,32,0,0,0-.57-6V78.55a20.27,20.27,0,0,0-20.25-20.27L304.36,125.85a20.28,20.28,0,0,0-20.31,20.26V292.48c0,.56.12,1.07.17,1.64V511.44C251.33,502.21,209.69,504.68,168.72,521Z"/><path class="cls-2" d="M142.72,500c-76,30.31-120.84,96.82-100.2,148.54s99,69.06,175,38.72c52.58-21,90.22-59.3,101.6-98a32.11,32.11,0,0,0,3.78-15.14V283.52l276.54-51.23V477.74c-32.93-9.25-74.56-6.78-115.5,9.57-76,30.3-120.83,96.81-100.22,148.51s99,69,175,38.72c52.6-21,90.26-59.32,101.63-98.06A32.39,32.39,0,0,0,664,561.36V169.74a32,32,0,0,0-.57-6V57.55a20.27,20.27,0,0,0-20.25-20.27L278.36,104.85a20.28,20.28,0,0,0-20.31,20.26V271.48c0,.56.12,1.07.17,1.64V490.44C225.33,481.21,183.69,483.68,142.72,500Z"/></svg>